<?xml version="1.0" encoding="UTF-8"?>
<svg fill="none" viewBox="0 0 152 44" xmlns="http://www.w3.org/2000/svg">
<path d="m5.1007 2.4414e-4c-2.817 0-5.1007 2.2386-5.1007 5v34c0 2.7615 2.2836 5 5.1007 5h141.8c2.817 0 5.101-2.2385 5.101-5v-34c0-2.7614-2.284-5-5.101-5h-141.8zm46.736 28.989h5.3024l1.2723 3.7987h2.2842l-5.0224-14.054h-2.3334l-5.0224 14.054h2.2459l1.2734-3.7987zm15.473 3.9059c2.5457 0 4.2326-2.0458 4.2326-5.23 0-3.1754-1.6968-5.2311-4.2709-5.2311-1.3245-0.0432-2.5652 0.6528-3.2293 1.8115h-0.0383v-1.7043h-2.0151v13.636h2.0818v-5.0753h0.0482c0.6358 1.1659 1.8752 1.8623 3.191 1.7927zm11.163 0c2.5456 0 4.2325-2.0458 4.2325-5.23 0-3.1754-1.6967-5.2311-4.2708-5.2311-1.3246-0.0432-2.5653 0.6528-3.2294 1.8115h-0.0383v-1.7043h-2.0151v13.636h2.0818v-5.0753h0.0482c0.6358 1.1659 1.8753 1.8623 3.1911 1.7927zm14.936-1.7143c-1.8313 0-3.1714-0.9151-3.3256-2.3088l-2.1311-1e-4c0.1346 2.5421 2.2174 4.1502 5.3024 4.1502 3.2972 0 5.3703-1.6468 5.3703-4.2762 0-2.0557-1.1859-3.214-4.04-3.8959l-1.5327-0.3803c-1.793-0.4475-2.5259-1.0322-2.5259-2.0258 0-1.2467 1.1475-2.1033 2.8246-2.1033 1.677 0 2.8246 0.8466 2.9504 2.2492h2.1015c-0.0678-2.4249-2.0829-4.0905-5.0223-4.0905-2.9701 0-5.0618 1.6656-5.0618 4.0905 0 1.9585 1.1859 3.1654 3.7403 3.7887l1.8028 0.4388c1.8028 0.4477 2.5642 1.1008 2.5642 2.1917 0 1.2567-1.2624 2.1718-3.0171 2.1718zm9.7089-8.6396v-2.4249h-2.092v2.4249h-1.4743v1.6656h1.4743v5.8732c0 1.9872 0.801 2.7664 2.854 2.7664 0.388 0.0073 0.776-0.0253 1.157-0.0972v-1.6557c-0.228 0.0284-0.456 0.0447-0.685 0.0487-0.848 0-1.234-0.409-1.234-1.2865v-5.6489h1.929v-1.6656h-1.929zm7.856-0.126c-2.931 0-4.81 2.0259-4.81 5.2499 0 3.2328 1.86 5.2499 4.81 5.2499s4.811-2.0171 4.811-5.2499c0-3.224-1.871-5.2499-4.811-5.2499zm8.513 0.126h-1.986v10.247h2.082v-6.0777c-0.069-0.6149 0.131-1.2297 0.548-1.6829 0.417-0.4533 1.009-0.6997 1.621-0.6746 0.317-0.0094 0.633 0.0336 0.936 0.1271v-1.9674c-0.234-0.053-0.474-0.0793-0.713-0.0784-1.145-0.0442-2.163 0.7285-2.44 1.8512h-0.048v-1.744zm8.432 10.374c2.294 0 4.087-1.2766 4.367-3.1367h-1.977c-0.379 0.9508-1.332 1.5369-2.342 1.4412-0.757 0.0282-1.49-0.2738-2.012-0.8291s-0.783-1.3104-0.716-2.0732v-0.1271h7.163v-0.7206c0-3.1069-1.764-5.0543-4.57-5.0543-2.853 0-4.695 2.0845-4.695 5.2985 0 3.2041 1.832 5.2013 4.782 5.2013zm-87.805-5.3255c-2.2184-0.9249-3.6608-3.0676-3.6634-5.4419 0.0274-2.0986 1.1435-4.0371 2.9573-5.1363-1.1494-1.6182-3.0056-2.6074-5.0086-2.6692-1.289-0.1333-2.5539 0.3616-3.5877 0.766h-1e-4c-0.6562 0.2568-1.2193 0.4771-1.6363 0.4771-0.4743 0-1.0536-0.2294-1.7027-0.4864-0.8487-0.3361-1.8168-0.7194-2.8256-0.6989-2.3425 0.0746-4.4735 1.3557-5.6132 3.3745-2.427 4.1421-0.6166 10.23 1.7082 13.578 1.1632 1.6395 2.5226 3.4709 4.3014 3.4059 0.8069-0.033 1.3795-0.2705 1.9709-0.5159 0.6843-0.2839 1.3939-0.5782 2.521-0.5782 1.0627 0 1.7418 0.2852 2.3936 0.5589 0.6248 0.2623 1.2245 0.5141 2.1128 0.4939 1.8677-0.0299 3.0445-1.6468 4.1669-3.3018 0.8357-1.1682 1.4788-2.4594 1.9055-3.8256zm-11.153-13.556c1.5767 0.016 3.0738-0.6818 4.0618-1.8931 1.0184-1.2052 1.5202-2.7542 1.3987-4.3181-1.5559 0.16109-2.9931 0.89411-4.0253 2.053-1.0192 1.1434-1.5355 2.6393-1.4352 4.1582zm27.629 13.203h-4.203l2.0731-6.1651h0.0579l2.072 6.1651zm10.133-3.0096c1.619 0 2.6802 1.3639 2.6802 3.4384 0 2.0933-1.0612 3.4473-2.6802 3.4473-1.5906 0-2.6605-1.3827-2.6605-3.4473 0-2.0458 1.0699-3.4384 2.6605-3.4384zm13.843 3.4384c0-2.0745-1.0611-3.4384-2.6802-3.4384-1.5906 0-2.6605 1.3926-2.6605 3.4384 0 2.0646 1.0699 3.4473 2.6605 3.4473 1.6191 0 2.6802-1.354 2.6802-3.4473zm30.408-3.5169c1.687 0 2.69 1.3053 2.69 3.5169 0 2.2204-1.003 3.5158-2.69 3.5158s-2.689-1.2954-2.689-3.5158c0-2.2016 1.002-3.5169 2.689-3.5169zm14.275 2.5719h5.07c0.038-0.6855-0.209-1.3558-0.681-1.8494-0.472-0.4937-1.127-0.766-1.806-0.7512-0.685-0.0042-1.343 0.2682-1.828 0.7566-0.485 0.4883-0.757 1.1522-0.755 1.844zm-76.105-11.72h4.9658v1.3916h1.001v-2.3388h-0.8789v-6.0986h-4.5899l-0.2588 4.2724c-0.0537 0.9326-0.2295 1.5332-0.7324 1.8262h-0.5127v2.3388h1.0059v-1.3916zm1.2549-2.7246 0.2148-3.3789h2.5244v5.1563h-3.2226v-0.0391c0.3369-0.3955 0.4345-0.9375 0.4834-1.7383zm7.7587 2.8223c1.4698 0 2.4366-1.0107 2.4366-2.666 0-1.6504-0.9717-2.6612-2.4366-2.6612-1.4599 0-2.4365 1.0108-2.4365 2.6612 0 1.6553 0.9668 2.666 2.4365 2.666zm0-0.8691c-0.8251 0-1.3623-0.6543-1.3623-1.7969 0-1.1377 0.542-1.792 1.3623-1.792 0.8252 0 1.3624 0.6543 1.3624 1.792 0 1.1426-0.5323 1.7969-1.3624 1.7969zm5.5274-4.458c1.3232 0 2.1289 0.84965 2.2217 1.8604h-1.0059c-0.1074-0.5469-0.5176-0.9814-1.206-0.9814-0.8155 0-1.3526 0.6787-1.3526 1.7822 0 1.1279 0.5469 1.7822 1.3623 1.7822 0.6494 0 1.0742-0.3564 1.2012-0.9521h1.0107c-0.1123 1.0937-0.9863 1.8359-2.2216 1.8359-1.4698 0-2.4268-1.0059-2.4268-2.666 0-1.6309 0.957-2.6612 2.417-2.6612zm6.8652 0.09278h-4.2724v0.83497h1.6064v4.3017h1.0596v-4.3017h1.6064v-0.83497zm3.2959 5.4053c-0.4394 1.2451-0.9424 1.6455-2.0117 1.6455-0.083 0-0.3516-0.0098-0.4297-0.0244v-0.8545c0.0781 0.0195 0.2539 0.0195 0.3418 0.0195 0.4883 0 0.752-0.205 0.9131-0.7324 0-0.0057 0.0318-0.1119 0.0582-0.1999v-1e-4c0.0187-0.0622 0.0346-0.1154 0.0346-0.1174l-1.8555-5.1416h1.1426l1.2988 4.1797h0.0195l1.3038-4.1797h1.1132l-1.9287 5.4053zm5.9522-0.2686h1.0595v-5.1367h-4.3798v5.1367h1.0546v-4.3017h2.2657v4.3017zm6.6211 0h-1.0547v-2.2363h-2.3145v2.2363h-1.0547v-5.1367h1.0547v2.0703h2.3145v-2.0703h1.0547v5.1367zm3.3496 0.0977c1.4697 0 2.4365-1.0107 2.4365-2.666 0-1.6504-0.9717-2.6612-2.4365-2.6612-1.46 0-2.4365 1.0108-2.4365 2.6612 0 1.6553 0.9668 2.666 2.4365 2.666zm0-0.8691c-0.8252 0-1.3623-0.6543-1.3623-1.7969 0-1.1377 0.542-1.792 1.3623-1.792 0.8252 0 1.3623 0.6543 1.3623 1.792 0 1.1426-0.5322 1.7969-1.3623 1.7969zm9.541-0.708c0 0.9033-0.6934 1.4794-1.8066 1.4794h-2.3633v-5.1367h2.334c1.0009 0 1.6064 0.50297 1.6064 1.3233 0 0.5322-0.3809 1.0205-0.874 1.1132v0.0391c0.664 0.0879 1.1035 0.5469 1.1035 1.1817zm-2.0557-2.8907h-1.0693v1.3672h0.9619c0.5957 0 0.8936-0.2295 0.8936-0.6885 0-0.4345-0.2784-0.6787-0.7862-0.6787zm-0.039 2.1045h-1.0303v1.499h1.1523c0.5909 0 0.918-0.2636 0.918-0.7568 0-0.498-0.3467-0.7422-1.04-0.7422z" clip-rule="evenodd" fill="#221F2E" fill-rule="evenodd"/>
</svg>
