<?xml version="1.0" encoding="UTF-8"?>
<svg viewBox="0 0 124 32" xmlns="http://www.w3.org/2000/svg">
<path d="m38.815 2.1081v7.3255h1.5914v-5.4941h0.239l2.0382 5.4941h1.2071l1.9971-5.4941h0.2391v5.4941h1.605v-7.3255h-2.3184l-2.14 5.2541-2.1538-5.2541h-2.3047z"/>
<path d="m38.815 16.899v7.3256h1.6325v-3.3884h0.0687l3.1004 3.3884h2.2087l-3.5805-3.8138 3.3473-3.5118h-2.1676l-2.9083 3.0866h-0.0687v-3.0866h-1.6325z"/>
<path d="m46.924 24.138h3.7205c0.7408 0 1.3719-0.1645 1.8933-0.48 0.5212-0.3294 0.7819-0.837 0.7819-1.509 0-1.0849-0.7505-1.5624-1.4817-1.8384 0.6903-0.4312 1.1799-0.9054 1.1799-1.66 0-1.1661-1.0152-1.8383-2.442-1.8383h-3.6519v7.3257zm1.605-6.0087h1.7314c1.3855-0.1097 1.4679 1.7149-0.0412 1.6874h-1.6902v-1.6874zm0 2.8673h1.8137c0.7545 0 1.3032 0.3017 1.3032 0.8641 0 0.6038-0.4801 0.933-1.2347 0.933h-1.8822v-1.7971z"/>
<path d="m80.406 20.369c0-0.9741-0.3293-1.852-1.0015-2.6203-0.6584-0.7682-1.5228-1.1524-2.5928-1.1524-1.3918 0-2.0714 0.9226-2.3299 1.2758h-0.2391v-1.1386h-1.478v10.988h1.6325v-4.7328h0.1258c0.2608 0.622 1.1912 1.1798 2.2476 1.1798 1.0563 0 1.9205-0.3705 2.6064-1.125 0.686-0.7545 1.029-1.6462 1.029-2.675zm-5.4326-1.6325c0.4115-0.4528 0.9465-0.6723 1.5913-0.6723s1.1799 0.2195 1.5777 0.6723c0.4115 0.4526 0.6174 1.0014 0.6174 1.6462s-0.2059 1.1935-0.6174 1.6462c-0.3978 0.4389-0.9329 0.6585-1.5777 0.6585s-1.1798-0.2196-1.5913-0.6585c-0.3979-0.4527-0.6037-1.0014-0.6037-1.6462s0.2058-1.1936 0.6037-1.6462z"/>
<path d="m72.837 5.7726c0-0.97404-0.3292-1.852-1.0014-2.6202-0.6585-0.76824-1.5228-1.1524-2.5928-1.1524-1.3917 0-2.0712 0.92254-2.3299 1.2758h-0.2389v-1.1386h-1.4782v10.988h1.6326v-4.7328h0.1257c0.2609 0.62199 1.1912 1.1798 2.2475 1.1798 1.0564 0 1.9207-0.37045 2.6065-1.125 0.686-0.75452 1.0289-1.6462 1.0289-2.6751zm-5.4325-1.6325c0.4116-0.45273 0.9467-0.67225 1.5914-0.67225 0.6448 0 1.1798 0.21952 1.5775 0.67225 0.4116 0.45264 0.6175 1.0014 0.6175 1.6462 0 0.64472-0.2059 1.1936-0.6175 1.6462-0.3977 0.43902-0.9327 0.65853-1.5775 0.65853-0.6447 0-1.1798-0.21951-1.5914-0.65853-0.3978-0.45263-0.6036-1.0015-0.6036-1.6462 0-0.64483 0.2058-1.1936 0.6036-1.6462z"/>
<path d="m86.267 19.107c0 0.4116-0.2332 0.6173-0.686 0.6173h-0.9054c-1.2895 0-3.0455 0.535-3.0455 2.2361v0.0823c0 0.6311 0.2332 1.1524 0.6997 1.5503 0.4664 0.3977 1.0563 0.6036 1.7696 0.6036 0.9218 0 1.5731-0.4686 2.0281-1.125h0.239v1.0014h1.4917v-4.6642c0-0.5076-0.0822-0.9467-0.2469-1.317-0.4526-1.0015-1.3718-1.4954-2.7436-1.4954-1.4953 0-2.538 0.6175-3.1142 1.8657l1.2484 0.7135c0.3705-0.782 0.9877-1.1661 1.8245-1.1661 0.9192 0 1.4406 0.4939 1.4406 1.0975zm-0.0138 2.0029c0 1.0975-0.7134 1.7834-1.8245 1.7834-0.6997 0-1.1662-0.3979-1.1662-1.0014 0-0.3155 0.151-0.5625 0.4391-0.7408 0.3017-0.1784 0.6311-0.2744 0.974-0.2744h1.5776v0.2332z"/>
<path d="m59.237 19.107c0 0.4116-0.2333 0.6173-0.686 0.6173h-0.9054c-1.2895 0-3.0455 0.535-3.0455 2.2361v0.0823c0 0.6311 0.2332 1.1524 0.6996 1.5503 0.4664 0.3977 1.0564 0.6036 1.7698 0.6036 0.9217 0 1.573-0.4686 2.028-1.125h0.2389v1.0014h1.4919v-4.6642c0-0.5076-0.0823-0.9467-0.247-1.317-0.4527-1.0015-1.3718-1.4954-2.7437-1.4954-1.4952 0-2.5379 0.6175-3.1141 1.8657l1.2484 0.7135c0.3705-0.782 0.9877-1.1661 1.8246-1.1661 0.9192 0 1.4405 0.4939 1.4405 1.0975zm-0.0137 2.0029c0 1.0975-0.7135 1.7834-1.8246 1.7834-0.6997 0-1.1661-0.3979-1.1661-1.0014 0-0.3155 0.1509-0.5625 0.439-0.7408 0.3018-0.1784 0.631-0.2744 0.974-0.2744h1.5777v0.2332z"/>
<path d="m88.874 18.28h2.3729v5.8578h1.6465v-5.8578h2.387v-1.4679h-6.4064v1.4679z"/>
<path d="m96.767 24.138h1.6324v-2.9905h3.3197v2.9905h1.633v-7.3257h-1.633v2.9084h-3.3197v-2.9084h-1.6324v7.3257z"/>
<path d="m114.4 16.812h-1.633v7.3258h1.633v-7.3258z"/>
<path d="m116.44 24.138h1.577l3.471-4.8837v4.8837h1.591v-7.3257h-1.577l-3.471 4.8976v-4.8976h-1.591v7.3257z" clip-rule="evenodd" fill-rule="evenodd"/>
<path d="m106.83 16.812v2.4145h1.92c1.797 0 2.991 0.7956 2.991 2.3871 0 1.5227-1.016 2.5241-2.868 2.5241h-3.676v-7.3257h1.633zm1.825 5.9539c0.96 0 1.44-0.3841 1.44-1.1661 0-0.727-0.59-1.0974-1.468-1.0974h-1.797v2.2635h1.825z" clip-rule="evenodd" fill-rule="evenodd"/>
<path d="m122.14 13.569h-4.723v1.3718h4.723v-1.3718z"/>
<path d="m68.218 22.669h-3.3369c0.086-0.1983 0.3431-0.9242 0.5254-1.7933 0.2562-1.2403 0.4645-2.5951 0.4645-2.5951h2.347v4.3884zm1.6466 0v-5.8564h-5.4466s-0.2245 2.4642-0.5476 4.0951c-0.1764 0.8788-0.4676 1.6175-0.5263 1.7613h-1.067v3.7329h1.6045v-2.265h5.31v2.265h1.6069v-3.7329h-0.9339z"/>
<path d="M21.9766 7.94658H0V29.9231H21.9766V7.94658Z" fill="#3216B5"/>
<path d="m31.491 2.1081h-21.976v21.977h21.976v-21.977z" fill="#3216B5"/>
<path d="m56.748 6.2939c0.0138-0.12351 0.0274-0.28807 0.0274-0.50759 0-1.1387-0.3154-2.0441-0.9466-2.7437-0.6309-0.69967-1.509-1.0426-2.6202-1.0426-1.0563 0-1.9342 0.37046-2.6339 1.1112-0.6996 0.74082-1.0563 1.6326-1.0563 2.6889 0 1.0838 0.3703 2.0029 1.0974 2.73 0.7408 0.7271 1.66 1.0838 2.7437 1.0838 1.317 0 2.5105-0.6311 3.1279-1.7697l-1.1798-0.78195c-0.3979 0.75452-1.0564 1.1386-1.9754 1.1386-0.5626 0-1.0565-0.17827-1.4817-0.53501-0.4253-0.37036-0.6447-0.8231-0.6585-1.3718h5.556zm-3.5394-2.8946c1.0426 0 1.8521 0.631 1.907 1.6599h-3.8412c0.1508-1.0015 0.9327-1.6599 1.9342-1.6599z"/>
<path d="m57.411 3.5759h2.3733v5.8577h1.6461v-5.8577h2.387v-1.4678h-6.4064v1.4678z"/>
<path d="m6.5953 15.299v7.3255h1.5912v-5.4941h0.23909l2.0382 5.4941h1.2072l1.9971-5.4941h0.2389v5.4941h1.6051v-7.3255h-2.3184l-2.14 5.2541-2.1538-5.2541h-2.3046z" fill="#fff"/>
<path d="m23.79 16.803v-1.4652h-3.53v-0.2389c1.2451-0.5501 3.4177-1.2619 3.4177-3.213 0-1.5413-1.289-2.8579-3.1099-2.8579-1.8211 0-2.751 1.2469-3.1608 2.3712l1.3479 0.5241c0.3041-0.9379 0.8394-1.51 1.8253-1.51 0.8611 0 1.5704 0.6385 1.5001 1.4851-0.0908 1.0921-1.2659 1.8838-2.3473 2.4744-0.8258 0.451-2.1047 1.0913-2.1047 1.0913v1.3389h6.1617z" fill="#fff"/>
</svg>
