<?xml version="1.0" encoding="UTF-8"?>
<svg viewBox="0 0 152 44" xmlns="http://www.w3.org/2000/svg">
<path d="m75.27 31.104c0.7099-0.0172 1.3832-0.3328 1.8669-0.8752s0.7368-1.2657 0.702-2.0056c-0.0028-1.1829-0.6984-2.2438-1.7542-2.6753-1.0557-0.4315-2.2571-0.1459-3.0294 0.7202s-0.9586 2.1366-0.4698 3.2039c0.4888 1.0674 1.5533 1.7145 2.6845 1.632z" fill="#221F2E"/>
<path d="m65.294 31.104c0.71-0.0172 1.3832-0.3328 1.8669-0.8752s0.7368-1.2657 0.702-2.0056c-0.0031-1.1838-0.7001-2.2451-1.7572-2.6757s-2.259-0.1427-3.0302 0.7258c-0.7712 0.8684-0.9546 2.1406-0.4624 3.2073 0.4923 1.0667 1.5599 1.7106 2.6916 1.6234h-0.0107z" fill="#221F2E"/>
<path d="m95.725 28.089 4.0673-1.7642c-0.3199-0.658-0.9854-1.0535-1.6911-1.0049-0.6696 0.0315-1.2988 0.3428-1.7458 0.8637-0.447 0.521-0.6743 1.2077-0.6304 1.9054z" fill="#221F2E"/>
<path d="m85.214 31.104h-0.0107l0.0074-3e-4 0.0033 3e-4z" fill="#221F2E"/>
<path d="m87.014 30.208c-0.4593 0.5422-1.1107 0.8655-1.8036 0.8954-1.4296-0.1332-2.5256-1.3829-2.5256-2.8805 0-1.4988 1.0977-2.7492 2.5289-2.8808 0.6916 0.037 1.3396 0.3637 1.797 0.9061 0.4575 0.5424 0.6856 1.2544 0.6328 1.9747 0.059 0.7236-0.1685 1.4409-0.6295 1.9851z" fill="#221F2E"/>
<path d="m111.31 25.432 0.043 0.0335c1.268 0 2.295-1.0723 2.295-2.3951s-1.027-2.3951-2.295-2.3951h-2.837v4.7567h2.794z" fill="#221F2E"/>
<path d="m123.4 31.07 0.053 0.0335c1.206-0.0306 2.206-0.9832 2.345-2.2332-0.556-0.3234-1.184-0.4853-1.82-0.4689-1.006 0-2.141 0.3684-2.141 1.485 0 0.8375 0.91 1.1836 1.563 1.1836z" fill="#221F2E"/>
<path d="m4.9351 2.4414e-4c-2.7256 0-4.9351 2.2386-4.9351 5v34c0 2.7615 2.2095 5 4.9351 5h142.13c2.725 0 4.935-2.2385 4.935-5v-34c0-2.7614-2.21-5-4.935-5h-142.13zm73.585 24.839c-0.8616-0.8947-2.0345-1.3861-3.2499-1.3617-2.5096 0.0123-4.5355 2.1424-4.5277 4.7603 0.0079 2.618 2.0466 4.7348 4.5562 4.7307s4.5419-2.1275 4.542-4.7455c0.0176-1.268-0.459-2.4892-1.3206-3.3838zm-9.9759 0c-0.8616-0.8947-2.0344-1.3861-3.2499-1.3617h0.0107c-2.511 0.0061-4.5423 2.1335-4.5384 4.7529 4e-3 2.6194 2.0417 4.7402 4.5527 4.7381 2.511-2e-3 4.5455-2.1261 4.5455-4.7455 0.0176-1.268-0.4589-2.4892-1.3206-3.3838zm-8.6124 0.0452-6.4972 0.0558v2.0099h4.624c-0.0725 0.9466-0.4497 1.8399-1.0704 2.5347-0.9354 0.994-2.23 1.5293-3.5643 1.4739-2.8375 0-5.1378-2.3996-5.1378-5.3597s2.3003-5.3596 5.1378-5.3596c1.3035-0.0222 2.5622 0.4958 3.5001 1.4404l1.3594-1.4181c-1.2792-1.3513-3.0284-2.1045-4.8488-2.088-2.5914-0.1053-5.0303 1.277-6.356 3.6021-1.3257 2.3252-1.3257 5.2207 0 7.5459 1.3257 2.3251 3.7646 3.7074 6.356 3.6022 1.8536 0.0873 3.6529-0.6659 4.9344-2.0657 1.1214-1.2853 1.7201-2.9749 1.6698-4.7121 0.0034-0.4232-0.0324-0.8457-0.107-1.2617zm42.226 2.1215-0.225-0.5025c-0.571-1.7539-2.1213-2.9578-3.8959-3.0259-1.1834-0.0024-2.315 0.5063-3.1261 1.4052-0.8111 0.899-1.2293 2.1082-1.1553 3.3403-0.0263 1.261 0.4401 2.4789 1.292 3.3739s2.016 1.3901 3.2249 1.3716c1.5209 0.0086 2.9444-0.78 3.7894-2.0992l-1.552-1.1166c-0.472 0.8196-1.3213 1.32-2.2374 1.3176-0.9488 0.0377-1.8232-0.5335-2.2049-1.4404l6.0903-2.624zm-11.378-8.2739v13.957h2.0015v-13.957h-2.0015zm-3.2754 5.0246v0.7816h-0.0749c-0.6102-0.7116-1.4824-1.1178-2.3976-1.1166-2.4296 0.123-4.339 2.2137-4.339 4.7512 0 2.5374 1.9094 4.6282 4.339 4.7511 0.9182 0.0161 1.796-0.3928 2.3976-1.1166h0.0642v0.6811c0 1.82-0.9312 2.7915-2.4297 2.7915-1.0208-0.0249-1.9259-0.6911-2.2906-1.6861l-1.7447 0.7593c0.6718 1.7048 2.2683 2.8137 4.0353 2.8027 2.3441 0 4.2814-1.4405 4.2814-4.9466v-8.4526h-1.841zm23.815-5.0246h-4.795v13.957h2.002v-5.2927h2.793c1.555 0.1166 3.042-0.6828 3.854-2.0713 0.811-1.3885 0.811-3.1336 0-4.5221-0.812-1.3886-2.299-2.1879-3.854-2.0713zm12.385 4.7231-0.054-0.0335c-1.489-0.0928-2.889 0.7449-3.564 2.1327l1.777 0.7705c0.358-0.6882 1.071-1.0911 1.819-1.0273 0.513-0.0625 1.029 0.0927 1.432 0.4307 0.402 0.338 0.658 0.8306 0.709 1.367v0.1452c-0.643-0.3551-1.36-0.5392-2.087-0.536-1.916 0-3.854 1.1166-3.854 3.1377 0.039 0.8706 0.413 1.6881 1.038 2.2664 0.625 0.5784 1.447 0.8684 2.281 0.8042 1.026 0.0769 2.011-0.4369 2.568-1.3399h0.065v1.1166h1.926v-5.3708c0-2.4454-1.776-3.8635-4.056-3.8635zm13.304 0.3015h-2.226l-2.291 6.052h-0.064l-2.376-6.052h-2.141l3.565 8.4638-2.034 4.7009h2.087l5.48-13.165zm-20.219-5.0246v13.957h2.002v-13.957h-2.002zm-78.52 3.1045c0-0.3168-0.1604-0.6007-0.4288-0.7593l-4.5505-2.6825-3.7425 3.6959 3.4204 3.3778 4.8725-2.8731c0.2685-0.1582 0.4289-0.4421 0.4289-0.7588zm-9.3385-0.3551 3.5868-3.5425-5.0075-2.9533-10.974-5.7453 12.395 12.241zm0 1.2183-12.213 12.061 10.811-6.084 4.6667-2.7522-3.2648-3.2244zm-0.6168-0.6094-12.511-12.355-0.0116 24.721 12.522-12.366zm45.53-6.8217c-0.4394 1.2451-0.9424 1.6455-2.0117 1.6455-0.083 0-0.3516-0.0098-0.4297-0.0244v-0.8545c0.0781 0.0195 0.2539 0.0195 0.3418 0.0195 0.4883 0 0.752-0.205 0.9131-0.7324 0-0.0057 0.0318-0.112 0.0582-0.2 0.0187-0.0622 0.0346-0.1154 0.0346-0.1174l-1.8555-5.1416h1.1426l1.2988 4.1797h0.0195l1.3038-4.1797h1.1132l-1.9287 5.4053zm-3.2959-5.4053h-4.2724v0.83497h1.6064v4.3017h1.0596v-4.3017h1.6064v-0.83497zm-16.44 5.1367h-4.9658v1.3916h-1.0059v-2.3388h0.5127c0.5029-0.293 0.6787-0.8936 0.7324-1.8262l0.2588-4.2724h4.5899v6.0986h0.8789v2.3388h-1.001v-1.3916zm-3.7109-2.7246 0.2148-3.3789h2.5244v5.1563h-3.2226v-0.0391c0.3369-0.3955 0.4345-0.9375 0.4834-1.7383zm7.7587 2.8223c1.4698 0 2.4366-1.0107 2.4366-2.666 0-1.6504-0.9717-2.6612-2.4366-2.6612-1.4599 0-2.4365 1.0108-2.4365 2.6612 0 1.6553 0.9668 2.666 2.4365 2.666zm-1.3623-2.666c0 1.1426 0.5372 1.7969 1.3623 1.7969 0.8301 0 1.3624-0.6543 1.3624-1.7969 0-1.1377-0.5372-1.792-1.3624-1.792-0.8203 0-1.3623 0.6543-1.3623 1.792zm6.8897-2.6612c1.3232 0 2.1289 0.84965 2.2217 1.8604h-1.0059c-0.1074-0.5469-0.5176-0.9814-1.206-0.9814-0.8155 0-1.3526 0.6787-1.3526 1.7822 0 1.1279 0.5469 1.7822 1.3623 1.7822 0.6494 0 1.0742-0.3564 1.2012-0.9521h1.0107c-0.1123 1.0937-0.9863 1.8359-2.2216 1.8359-1.4698 0-2.4268-1.0059-2.4268-2.666 0-1.6309 0.957-2.6612 2.417-2.6612zm16.113 5.2294h1.0595v-5.1367h-4.3798v5.1367h1.0546v-4.3017h2.2657v4.3017zm6.6211 0h-1.0547v-2.2363h-2.3145v2.2363h-1.0547v-5.1367h1.0547v2.0703h2.3145v-2.0703h1.0547v5.1367zm3.3496 0.0977c1.4697 0 2.4365-1.0107 2.4365-2.666 0-1.6504-0.9717-2.6612-2.4365-2.6612-1.46 0-2.4365 1.0108-2.4365 2.6612 0 1.6553 0.9668 2.666 2.4365 2.666zm-1.3623-2.666c0 1.1426 0.5371 1.7969 1.3623 1.7969 0.8301 0 1.3623-0.6543 1.3623-1.7969 0-1.1377-0.5371-1.792-1.3623-1.792-0.8203 0-1.3623 0.6543-1.3623 1.792zm10.903 1.0889c0 0.9033-0.6934 1.4794-1.8066 1.4794h-2.3633v-5.1367h2.334c1.0009 0 1.6064 0.50297 1.6064 1.3233 0 0.5322-0.3809 1.0205-0.874 1.1132v0.0391c0.664 0.0879 1.1035 0.5469 1.1035 1.1817zm-3.125-2.8907h1.0693c0.5078 0 0.7862 0.2442 0.7862 0.6787 0 0.459-0.2979 0.6885-0.8936 0.6885h-0.9619v-1.3672zm0 2.1045h1.0303c0.6933 0 1.04 0.2442 1.04 0.7422 0 0.4932-0.3271 0.7568-0.918 0.7568h-1.1523v-1.499z" clip-rule="evenodd" fill="#221F2E" fill-rule="evenodd"/>
</svg>
